#tb 0: 1/12
#media_type 0: video
#codec_id 0: rawvideo
#dimensions 0: 320x160
#sar 0: 0/1
0,          0,          0,        1,   153600, 0x00000000
0,          1,          1,        1,   153600, 0x9c77862c
0,          2,          2,        1,   153600, 0xd487c33c
0,          3,          3,        1,   153600, 0x5c00c01c
0,          4,          4,        1,   153600, 0x5496c2a2
0,          5,          5,        1,   153600, 0x858ac5c0
0,          6,          6,        1,   153600, 0xe32fc7d9
0,          7,          7,        1,   153600, 0xabffc965
0,          8,          8,        1,   153600, 0x4171c8e7
0,          9,          9,        1,   153600, 0xaec4ca90
0,         10,         10,        1,   153600, 0x3cb4cb5d
0,         11,         11,        1,   153600, 0x3aedcdc0
0,         12,         12,        1,   153600, 0x0fa4cf55
0,         13,         13,        1,   153600, 0x66a1d146
0,         14,         14,        1,   153600, 0x3828d3ad
0,         15,         15,        1,   153600, 0x73ccd7a4
0,         16,         16,        1,   153600, 0xb815d983
0,         17,         17,        1,   153600, 0x11a5a54f
0,         18,         18,        1,   153600, 0x337d8bff
0,         19,         19,        1,   153600, 0x0a1c8e5c
0,         20,         20,        1,   153600, 0x09648a57
0,         21,         21,        1,   153600, 0xf7398ba4
0,         22,         22,        1,   153600, 0x836d8aaf
0,         23,         23,        1,   153600, 0x4ee385bf
0,         24,         24,        1,   153600, 0xacf2c4d6
0,         25,         25,        1,   153600, 0x0610f426
0,         26,         26,        1,   153600, 0xb798e4a1
0,         27,         27,        1,   153600, 0xdaabe17e
0,         28,         28,        1,   153600, 0x7b82def5
0,         29,         29,        1,   153600, 0x56afe483
0,         30,         30,        1,   153600, 0x4640acef
0,         31,         31,        1,   153600, 0x4415f46c
0,         32,         32,        1,   153600, 0x258d01d0
0,         33,         33,        1,   153600, 0x18a55ba1
0,         34,         34,        1,   153600, 0x165a7173
0,         35,         35,        1,   153600, 0xfa8a438b
0,         36,         36,        1,   153600, 0x57083a34
0,         37,         37,        1,   153600, 0xb39923cd
0,         38,         38,        1,   153600, 0x3e32fd70
0,         39,         39,        1,   153600, 0xa7e9eb7f
0,         40,         40,        1,   153600, 0x8c20ed88
0,         41,         41,        1,   153600, 0x8c9bed27
0,         42,         42,        1,   153600, 0xc79af188
0,         43,         43,        1,   153600, 0x3bda00c8
0,         44,         44,        1,   153600, 0x03f837a7
0,         45,         45,        1,   153600, 0x550b83e3
0,         46,         46,        1,   153600, 0xc0bc6080
0,         47,         47,        1,   153600, 0xb8d968ed
0,         48,         48,        1,   153600, 0x893e2348
0,         49,         49,        1,   153600, 0x6cd01834
0,         50,         50,        1,   153600, 0x9e6926c5
0,         51,         51,        1,   153600, 0x4b57a4ea
0,         52,         52,        1,   153600, 0xaab2cfcd
0,         53,         53,        1,   153600, 0xffbb334d
0,         54,         54,        1,   153600, 0x4b37e5a9
0,         55,         55,        1,   153600, 0x3486dee0
0,         56,         56,        1,   153600, 0xa7185454
0,         57,         57,        1,   153600, 0xec29b8c2
0,         58,         58,        1,   153600, 0x01e562ba
0,         59,         59,        1,   153600, 0xe695cda3
0,         60,         60,        1,   153600, 0xf6b59dac
0,         61,         61,        1,   153600, 0xb308206b
0,         62,         62,        1,   153600, 0xcc6ede4a
0,         63,         63,        1,   153600, 0xd9f8071c
0,         64,         64,        1,   153600, 0xfb434821
0,         65,         65,        1,   153600, 0x84c97077
0,         66,         66,        1,   153600, 0x82dc5217
0,         67,         67,        1,   153600, 0xdbfd0ba8
0,         68,         68,        1,   153600, 0x3d71058e
0,         69,         69,        1,   153600, 0x3027b928
0,         70,         70,        1,   153600, 0x792ae3bd
0,         71,         71,        1,   153600, 0x36db00a7
0,         72,         72,        1,   153600, 0x4484e720
0,         73,         73,        1,   153600, 0xfaa76cdc
0,         74,         74,        1,   153600, 0x9f1e4c7e
0,         75,         75,        1,   153600, 0x4b545d88
0,         76,         76,        1,   153600, 0xa11cfd15
0,         77,         77,        1,   153600, 0x9f5d49c4
0,         78,         78,        1,   153600, 0x7a496740
0,         79,         79,        1,   153600, 0x98477803
0,         80,         80,        1,   153600, 0xa5fc20f8
0,         81,         81,        1,   153600, 0x344ff96e
0,         82,         82,        1,   153600, 0x20c91746
0,         83,         83,        1,   153600, 0x7c59b379
0,         84,         84,        1,   153600, 0x38e3b86d
0,         85,         85,        1,   153600, 0xff25a440
0,         86,         86,        1,   153600, 0xa1f66533
0,         87,         87,        1,   153600, 0xe136260a
0,         88,         88,        1,   153600, 0x048ccf56
0,         89,         89,        1,   153600, 0x65f68a24
0,         90,         90,        1,   153600, 0xf32b385a
0,         91,         91,        1,   153600, 0x3e930a8f
